<svg xmlns="http://www.w3.org/2000/svg" width="128" height="128" viewBox="0 0 128 128" role="img" aria-label="Layout Chart Generator icon">
  <defs>
    
<filter id="ds" x="-20%" y="-20%" width="140%" height="140%">
  <feDropShadow dx="0" dy="2" stdDeviation="2" flood-color="#0f172a" flood-opacity="0.18"/>
</filter>

    <style>
      .bg{fill:#F8FAFC;}
      .a{fill:#6366F1;}
      .a2{fill:#6366F1;opacity:.20;}
      .w{fill:#ffffff;}
      .t{font-family: ui-sans-serif, system-ui, -apple-system, Segoe UI, Roboto, Helvetica, Arial; font-weight:700; fill:#0f172a;}
    </style>
  </defs>
  <rect x="0" y="0" width="128" height="128" class="bg"/>
  
  <g filter="url(#ds)">
    <rect x="22" y="26" width="84" height="76" rx="16" class="w"/>
    <rect x="30" y="34" width="68" height="52" rx="12" class="a2"/>
    <path d="M34 50c0-8 6-14 14-14h32c8 0 14 6 14 14v22c0 8-6 14-14 14H48c-8 0-14-6-14-14V50z" fill="none" stroke="#6366F1" stroke-width="7" stroke-linecap="round" stroke-linejoin="round"/>
    <path d="M34 61h60M64 36v50" fill="none" stroke="#6366F1" stroke-width="4" stroke-linecap="round" opacity=".55"/>
    <rect x="34" y="90" width="10" height="6" rx="3" class="a"/>
    <rect x="48" y="90" width="10" height="6" rx="3" class="a"/>
    <rect x="62" y="90" width="10" height="6" rx="3" class="a"/>
  </g>

</svg>