<svg xmlns="http://www.w3.org/2000/svg" width="128" height="128" viewBox="0 0 128 128" role="img" aria-label="Layout Chart Generator icon">
  <defs>
    <style>
      .b{fill:none;stroke:#2563EB;stroke-width:4;stroke-linecap:round;stroke-linejoin:round;}
      .g{fill:none;stroke:#64748B;stroke-width:4;stroke-linecap:round;stroke-linejoin:round;}
      .bf{fill:#2563EB;stroke:none;opacity:.10;}
      .gf{fill:#64748B;stroke:none;opacity:.10;}
    </style>
  </defs>

  <path d="M26 56c0-10 8-18 18-18h40c10 0 18 8 18 18v24c0 10-8 18-18 18H44c-10 0-18-8-18-18V56z" class="g"/>
  <path d="M44 56h24M60 56h24" class="g"/>
  <path d="M54 70h20" class="b"/>
  <path d="M64 60v20" class="b"/>
  <path d="M24 96h80" class="b"/>
  <path d="M32 96v-8M96 96v-8" class="b"/>
  <path d="M24 32h80" class="g"/>
  <path d="M32 32v8M96 32v8" class="g"/>

</svg>