<svg xmlns="http://www.w3.org/2000/svg" width="128" height="128" viewBox="0 0 128 128" role="img" aria-label="Lens Thickness Estimator icon">
  <defs>
    
<filter id="ds" x="-20%" y="-20%" width="140%" height="140%">
  <feDropShadow dx="0" dy="2" stdDeviation="2" flood-color="#0f172a" flood-opacity="0.18"/>
</filter>

    <style>
      .bg{fill:#F8FAFC;}
      .a{fill:#F59E0B;}
      .a2{fill:#F59E0B;opacity:.20;}
      .w{fill:#ffffff;}
      .t{font-family: ui-sans-serif, system-ui, -apple-system, Segoe UI, Roboto, Helvetica, Arial; font-weight:700; fill:#0f172a;}
    </style>
  </defs>
  <rect x="0" y="0" width="128" height="128" class="bg"/>
  
  <g filter="url(#ds)">
    <path d="M30 90c20-34 48-34 68 0" class="w"/>
    <path d="M30 90c20-18 48-18 68 0" class="a2"/>
    <path d="M30 90c20-34 48-34 68 0" fill="none" stroke="#F59E0B" stroke-width="7" stroke-linecap="round" stroke-linejoin="round"/>
    <path d="M30 90c20-18 48-18 68 0" fill="none" stroke="#F59E0B" stroke-width="5" stroke-linecap="round" stroke-linejoin="round" opacity=".55"/>
  </g>
  <g filter="url(#ds)">
    <path d="M64 42v44" fill="none" stroke="#F59E0B" stroke-width="8" stroke-linecap="round"/>
    <path d="M58 50l6-10 6 10" fill="none" stroke="#F59E0B" stroke-width="8" stroke-linecap="round" stroke-linejoin="round"/>
    <path d="M58 78l6 10 6-10" fill="none" stroke="#F59E0B" stroke-width="8" stroke-linecap="round" stroke-linejoin="round"/>
    <path d="M32 90v-22" fill="none" stroke="#F59E0B" stroke-width="8" stroke-linecap="round"/>
    <path d="M26 76l6-10 6 10" fill="none" stroke="#F59E0B" stroke-width="8" stroke-linecap="round" stroke-linejoin="round"/>
    <path d="M26 82l6 10 6-10" fill="none" stroke="#F59E0B" stroke-width="8" stroke-linecap="round" stroke-linejoin="round"/>
  </g>

</svg>