<svg xmlns="http://www.w3.org/2000/svg" width="128" height="128" viewBox="0 0 128 128" role="img" aria-label="Rx Transposition icon">
  <defs>
    
<filter id="ds" x="-20%" y="-20%" width="140%" height="140%">
  <feDropShadow dx="0" dy="2" stdDeviation="2" flood-color="#0f172a" flood-opacity="0.18"/>
</filter>

    <style>
      .bg{fill:#F8FAFC;}
      .a{fill:#F97316;}
      .a2{fill:#F97316;opacity:.20;}
      .w{fill:#ffffff;}
      .t{font-family: ui-sans-serif, system-ui, -apple-system, Segoe UI, Roboto, Helvetica, Arial; font-weight:700; fill:#0f172a;}
    </style>
  </defs>
  <rect x="0" y="0" width="128" height="128" class="bg"/>
  
  <g filter="url(#ds)">
    <rect x="18" y="22" width="44" height="60" rx="10" class="w"/>
    <rect x="66" y="30" width="44" height="60" rx="10" class="w"/>
    <rect x="26" y="34" width="28" height="6" rx="3" class="a2"/>
    <rect x="26" y="46" width="22" height="6" rx="3" class="a2"/>
    <rect x="74" y="42" width="28" height="6" rx="3" class="a2"/>
    <rect x="74" y="54" width="22" height="6" rx="3" class="a2"/>
  </g>
  <g filter="url(#ds)">
    <path d="M44 88c10 10 30 10 40 0" fill="none" stroke="#F97316" stroke-width="8" stroke-linecap="round"/>
    <path d="M80 88l10 3-6 9" fill="none" stroke="#F97316" stroke-width="8" stroke-linecap="round" stroke-linejoin="round"/>
    <path d="M84 18c-10-10-30-10-40 0" fill="none" stroke="#F97316" stroke-width="8" stroke-linecap="round"/>
    <path d="M48 18l-10-3 6-9" fill="none" stroke="#F97316" stroke-width="8" stroke-linecap="round" stroke-linejoin="round"/>
  </g>

</svg>