<svg xmlns="http://www.w3.org/2000/svg" width="128" height="128" viewBox="0 0 128 128" role="img" aria-label="Spectacle Magnification Calculator icon">
  <defs>
    <style>
      .b{fill:none;stroke:#2563EB;stroke-width:4;stroke-linecap:round;stroke-linejoin:round;}
      .g{fill:none;stroke:#64748B;stroke-width:4;stroke-linecap:round;stroke-linejoin:round;}
      .bf{fill:#2563EB;stroke:none;opacity:.10;}
      .gf{fill:#64748B;stroke:none;opacity:.10;}
    </style>
  </defs>

  <path d="M18 64c8-12 18-18 30-18 14 0 26 10 30 18-4 8-16 18-30 18-12 0-22-6-30-18z" class="g"/>
  <circle cx="48" cy="64" r="8" class="b"/>
  <path d="M80 64c8-12 18-18 30-18 14 0 26 10 30 18-4 8-16 18-30 18-12 0-22-6-30-18z" class="g"/>
  <circle cx="110" cy="64" r="12" class="b"/>

</svg>