<svg xmlns="http://www.w3.org/2000/svg" width="128" height="128" viewBox="0 0 128 128" role="img" aria-label="Spectacle Magnification icon">
  <defs>
    
<filter id="ds" x="-20%" y="-20%" width="140%" height="140%">
  <feDropShadow dx="0" dy="2" stdDeviation="2" flood-color="#0f172a" flood-opacity="0.18"/>
</filter>

    <style>
      .bg{fill:#F8FAFC;}
      .a{fill:#F43F5E;}
      .a2{fill:#F43F5E;opacity:.20;}
      .w{fill:#ffffff;}
      .t{font-family: ui-sans-serif, system-ui, -apple-system, Segoe UI, Roboto, Helvetica, Arial; font-weight:700; fill:#0f172a;}
    </style>
  </defs>
  <rect x="0" y="0" width="128" height="128" class="bg"/>
  
  <g filter="url(#ds)">
    <path d="M16 64c10-14 22-22 34-22 16 0 30 12 34 22-4 10-18 22-34 22-12 0-24-8-34-22z" class="w"/>
    <circle cx="50" cy="64" r="10" class="a"/>
  </g>
  <g filter="url(#ds)">
    <path d="M70 64c10-14 22-22 34-22 16 0 30 12 34 22-4 10-18 22-34 22-12 0-24-8-34-22z" class="w"/>
    <circle cx="104" cy="64" r="14" class="a"/>
  </g>

</svg>