<svg xmlns="http://www.w3.org/2000/svg" width="128" height="128" viewBox="0 0 128 128" role="img" aria-label="Spherical Equivalent Calculator icon">
  <defs>
    <style>
      .b{fill:none;stroke:#2563EB;stroke-width:4;stroke-linecap:round;stroke-linejoin:round;}
      .g{fill:none;stroke:#64748B;stroke-width:4;stroke-linecap:round;stroke-linejoin:round;}
      .bf{fill:#2563EB;stroke:none;opacity:.10;}
      .gf{fill:#64748B;stroke:none;opacity:.10;}
    </style>
  </defs>

  <path d="M36 66c6-6 16-6 22 0" class="b"/>
  <path d="M34 66c-8 0-12 6-12 12" class="b"/>
  <path d="M60 66c8 0 12 6 12 12" class="b"/>
  <path d="M70 66c6-6 16-6 22 0" class="b"/>
  <path d="M68 66c-8 0-12 6-12 12" class="b"/>
  <path d="M94 66c8 0 12 6 12 12" class="b"/>
  <path d="M64 74h0" class="g"/>
  <path d="M58 50h12" class="g"/>
  <path d="M64 44v12" class="g"/>
  <path d="M58 98h12" class="g"/>
  <path d="M86 46h10" class="g"/>
  <path d="M91 41v10" class="g"/>
  <path d="M86 86h10" class="g"/>
  <path d="M86 94h10" class="g"/>

</svg>