<svg xmlns="http://www.w3.org/2000/svg" width="128" height="128" viewBox="0 0 128 128" role="img" aria-label="Vertex Distance icon">
  <defs>
    
<filter id="ds" x="-20%" y="-20%" width="140%" height="140%">
  <feDropShadow dx="0" dy="2" stdDeviation="2" flood-color="#0f172a" flood-opacity="0.18"/>
</filter>

    <style>
      .bg{fill:#F8FAFC;}
      .a{fill:#A855F7;}
      .a2{fill:#A855F7;opacity:.20;}
      .w{fill:#ffffff;}
      .t{font-family: ui-sans-serif, system-ui, -apple-system, Segoe UI, Roboto, Helvetica, Arial; font-weight:700; fill:#0f172a;}
    </style>
  </defs>
  <rect x="0" y="0" width="128" height="128" class="bg"/>
  
  <g filter="url(#ds)">
    <path d="M28 72c12-18 22-26 36-26 18 0 32 16 36 26-4 10-18 26-36 26-14 0-24-8-36-26z" class="w"/>
    <circle cx="64" cy="72" r="14" class="a2"/>
    <circle cx="64" cy="72" r="8" class="a"/>
  </g>
  <g filter="url(#ds)">
    <rect x="92" y="44" width="10" height="56" rx="5" class="a"/>
    <path d="M80 72h10" fill="none" stroke="#A855F7" stroke-width="8" stroke-linecap="round"/>
    <path d="M82 64l-8 8 8 8" fill="none" stroke="#A855F7" stroke-width="8" stroke-linecap="round" stroke-linejoin="round"/>
    <path d="M88 64l8 8-8 8" fill="none" stroke="#A855F7" stroke-width="8" stroke-linecap="round" stroke-linejoin="round"/>
  </g>

</svg>